<svg xmlns="http://www.w3.org/2000/svg" xmlns:xlink="http://www.w3.org/1999/xlink" fill="none" version="1.1" width="17" height="21" viewBox="0 0 17 21"><g style="mix-blend-mode:passthrough"><g><path d="M8.5,0C3.80607,0,0,3.80607,0,8.5C0,13.1939,3.80607,17,8.5,17C13.1939,17,17,13.1939,17,8.5C17,3.80263,13.1939,-7.8765e-7,8.5,0ZM3.94717,3.68219C3.94717,3.12814,4.39453,2.68077,4.94858,2.68077C5.50263,2.68077,5.95,3.12814,5.95,3.68219C5.95,4.23624,5.50263,4.6836,4.94858,4.6836C4.39453,4.6836,3.94717,4.23624,3.94717,3.68219ZM8.5,12.0549C6.53502,12.0549,4.94514,10.4615,4.94514,8.5C4.94514,6.53502,6.53846,4.94514,8.5,4.94514C10.465,4.94514,12.0549,6.53846,12.0549,8.5C12.0549,10.4615,10.4615,12.0549,8.5,12.0549Z" fill="#FFFFFF" fill-opacity="1"/></g><g><path d="M15.2118,16C13.5529,17.77948,11.1343,18.90998,8.43314,18.90998C5.77966,18.90998,3.40143,17.82135,1.74622,16.0942084L0.0799939,19.73343C-0.228294,20.410330000000002,0.380942,21,1.45261,21L15.5458,21C16.6211,21,17.2304,20.410330000000002,16.9184,19.73343L15.2118,16Z" fill="#FFFFFF" fill-opacity="1"/></g></g></svg>