<svg xmlns="http://www.w3.org/2000/svg" xmlns:xlink="http://www.w3.org/1999/xlink" fill="none" version="1.1" width="62.05525207519531" height="39.33898162841797" viewBox="0 0 62.05525207519531 39.33898162841797"><g><path d="M56.07,5.3362L47.9738,12.72L47.9738,8.33523C47.9738,3.72293,43.7982,0,38.625,0L9.34887,0C4.17567,0,0,3.72293,0,8.33523L0,31.0038C0,35.6161,4.17567,39.339,9.34887,39.339L38.6018,39.339C43.775,39.339,47.9506,35.6161,47.9506,31.0038L47.9506,27.1154L56.0468,34.0028C58.2506,36.009,62.0551,34.6233,62.0551,31.8104L62.0551,7.50791C62.0783,4.71571,58.2738,3.32996,56.07,5.3362ZM20.6,11.872L8.9081,11.872C7.609,11.872,6.56509,10.9413,6.56509,9.78304C6.56509,8.6248,7.609,7.69406,8.9081,7.69406L20.6,7.69406C21.8991,7.69406,22.943,8.62479,22.943,9.78304C22.9304,10.9321,21.8888,11.8608,20.6,11.872Z" fill="#FFFFFF" fill-opacity="1"/></g></svg>