<svg xmlns="http://www.w3.org/2000/svg" xmlns:xlink="http://www.w3.org/1999/xlink" fill="none" version="1.1" width="25" height="25" viewBox="0 0 25 25"><g><path d="M10.4818,12.5L0.418041,2.43647C-0.139347,1.8791,-0.139347,0.975411,0.418041,0.418033C0.975429,-0.139344,1.87913,-0.139344,2.43652,0.418033L12.5002,10.4816L22.564,0.418033C23.1214,-0.13888,24.0248,-0.138659,24.582,0.418526C25.1392,0.975712,25.1394,1.87902,24.5824,2.43647L14.5187,12.5L24.5824,22.5635C25.1391,23.121,25.1388,24.0241,24.5817,24.5812C24.0246,25.1383,23.1215,25.1386,22.564,24.582L12.5002,14.5184L2.43652,24.582C1.87913,25.1393,0.97543,25.1393,0.418041,24.582C-0.139347,24.0246,-0.139347,23.1209,0.418041,22.5635L10.4818,12.5Z" fill="#FFFFFF" fill-opacity="1"/></g></svg>