<svg xmlns="http://www.w3.org/2000/svg" xmlns:xlink="http://www.w3.org/1999/xlink" fill="none" version="1.1" width="49" height="48" viewBox="0 0 49 48"><g><path d="M35.2142,0L6.79416,0C3.04225,0,5.88502e-7,3.02396,5.88502e-7,6.75331L5.88502e-7,8.69772L42.0084,8.69772L42.0084,6.75331C42.0084,3.02396,38.9661,5.84964e-7,35.2142,0ZM41.5024,12.013L0,12.013L0,39.2685C0,44.0897,3.93395,48,8.78427,48L40.2157,48C45.066,48,49,44.0897,49,39.2685L49,19.4656C49,15.3498,45.643,12.013,41.5024,12.013ZM14.77,21.4437L24.0264,21.4437C25.0477,21.4437,25.8776,22.2687,25.8776,23.2839C25.8776,24.299,25.0477,25.124,24.0264,25.124L14.77,25.124C13.7488,25.124,12.9188,24.299,12.9188,23.2839C12.9188,22.2687,13.7488,21.4437,14.77,21.4437ZM34.4459,36.6065L14.77,36.6065C13.7488,36.6065,12.9188,35.7815,12.9188,34.7663C12.9188,33.7512,13.7488,32.9262,14.77,32.9262L34.4459,32.9262C35.4672,32.9262,36.2972,33.7512,36.2972,34.7663C36.2972,35.7815,35.4672,36.6065,34.4459,36.6065Z" fill="#FFFFFF" fill-opacity="1"/></g></svg>