<svg xmlns="http://www.w3.org/2000/svg" xmlns:xlink="http://www.w3.org/1999/xlink" fill="none" version="1.1" width="22" height="22" viewBox="0 0 22 22"><g><path d="M21.5708,8.90663L12.6223,0.791155C12.1701,0.289926,11.5157,0.002457,10.8235,0C10.1414,0,9.48955,0.285012,9.05501,0.759214L0.434932,8.89926C0.00544434,9.32678,-0.118349,9.9484,0.119132,10.5012C0.356614,11.0516,0.909896,11.398,1.52381,11.398L2.29942,11.398L2.29942,19.6732C2.29942,20.9582,3.35545,22,4.67423,22L8.37541,22C8.85542,22,9.28239,21.6241,9.28239,21.1572L9.28239,15.6536C9.28239,15.4201,9.44155,15.2113,9.68156,15.2113L12.2939,15.2113C12.5339,15.2113,12.7183,15.4201,12.7183,15.6536L12.7183,21.1572C12.7183,21.6241,13.12,22,13.6,22L17.3012,22C18.6225,22,19.7013,20.9582,19.7013,19.6732L19.7013,11.4005L20.4743,11.4005C21.0883,11.4005,21.639,11.0565,21.8765,10.5061C22.119,9.95577,21.9978,9.33415,21.5708,8.90663Z" fill="#FEFEFE" fill-opacity="1"/></g></svg>