<svg xmlns="http://www.w3.org/2000/svg" xmlns:xlink="http://www.w3.org/1999/xlink" fill="none" version="1.1" width="67" height="153" viewBox="0 0 67 153"><g style="mix-blend-mode:passthrough" transform="matrix(-1,-1.2246468525851679e-16,1.2246468525851679e-16,-1,134,306)"><g style="opacity:0.7539483904838562;mix-blend-mode:passthrough"><rect x="67" y="153" width="67" height="153" rx="10" fill="#FFFFFF" fill-opacity="0.1599999964237213"/><rect x="67" y="153" width="67" height="153" rx="10" fill-opacity="0" stroke-opacity="0.7539483904838562" stroke="#1B387B" fill="none" stroke-width="0"/></g><g style="mix-blend-mode:passthrough"><path d="M104.6031,229.4992L92.533534,241.0292C91.822155,241.71,91.822155,242.8117,92.533534,243.4903C93.24488,244.16989999999998,94.399,244.16989999999998,95.11034,243.4903L108.4673,230.7294C109.1776,230.0498,109.1776,228.9475,108.4673,228.27L95.11034,215.509732C94.75357,215.169887,94.28726,215,93.82087,215C93.35445,215,92.888141,215.169923,92.533534,215.51082C91.822155,216.19047,91.822155,217.29062,92.533534,217.97028L104.6031,229.4992L104.6031,229.4992Z" fill="#C1DBFF" fill-opacity="1"/></g></g></svg>