<svg xmlns="http://www.w3.org/2000/svg" xmlns:xlink="http://www.w3.org/1999/xlink" fill="none" version="1.1" width="202.22998046875" height="139.80999755859375" viewBox="0 0 202.22998046875 139.80999755859375"><g><g><path d="M7.179999904632568,29.7C3.9699999046325685,29.7,1.3499999046325684,27.08,1.3499999046325684,23.87L1.3499999046325684,5.83C1.3500000238415684,2.62,3.9699999046325685,0,7.179999904632568,0C10.379999904632568,0,12.999999904632569,2.62,12.999999904632569,5.83L12.999999904632569,23.88C12.999999904632569,27.08,10.379999904632568,29.7,7.179999904632568,29.7Z" fill="#FFFFFF" fill-opacity="1"/></g><g><path d="M57.37000091552734,84.58999938964844C54.16000091552734,84.58999938964844,51.540000915527344,81.96999938964844,51.540000915527344,78.75999938964844L51.540000915527344,60.719999389648436C51.540000915527344,57.509999389648435,54.16000091552734,54.88999938964844,57.37000091552734,54.88999938964844C60.58000091552734,54.88999938964844,63.20000091552734,57.509999389648435,63.20000091552734,60.719999389648436L63.20000091552734,78.76999938964843C63.20000091552734,81.96999938964844,60.570000915527345,84.58999938964844,57.37000091552734,84.58999938964844Z" fill="#FFFFFF" fill-opacity="1"/></g><g><path d="M57.37000091552734,48.68999954223633C54.16000091552734,48.68999954223633,51.540000915527344,46.06999954223633,51.540000915527344,42.859999542236324L51.540000915527344,24.809999542236326C51.540000915527344,21.59999954223633,54.16000091552734,18.979999542236328,57.37000091552734,18.979999542236328C60.58000091552734,18.979999542236328,63.20000091552734,21.59999954223633,63.20000091552734,24.809999542236326L63.20000091552734,42.859999542236324C63.20000091552734,46.06999954223633,60.570000915527345,48.68999954223633,57.37000091552734,48.68999954223633Z" fill="#FFFFFF" fill-opacity="1"/></g><g><path d="M79.63999755859375,62.79000183105469C76.42999755859375,62.79000183105469,73.80999755859375,60.17000183105469,73.80999755859375,56.96000183105468L73.80999755859375,38.910001831054686C73.80999755859375,35.700001831054685,76.42999755859375,33.08000183105469,79.63999755859375,33.08000183105469C82.84999755859374,33.08000183105469,85.46999755859375,35.700001831054685,85.46999755859375,38.910001831054686L85.46999755859375,56.96000183105468C85.46999755859375,60.160001831054686,82.84999755859374,62.79000183105469,79.63999755859375,62.79000183105469Z" fill="#FFFFFF" fill-opacity="1"/></g><g><path d="M33.11999900817871,84.7800030517578C29.909999008178712,84.7800030517578,27.28999900817871,82.16000305175781,27.28999900817871,78.95000305175782L27.28999900817871,51.13000305175781C27.28999900817871,47.92000305175781,29.909999008178712,45.30000305175781,33.11999900817871,45.30000305175781C36.32999900817871,45.30000305175781,38.94999900817871,47.92000305175781,38.94999900817871,51.13000305175781L38.94999900817871,78.95000305175782C38.94999900817871,82.16000305175781,36.31999900817871,84.7800030517578,33.11999900817871,84.7800030517578Z" fill="#FFFFFF" fill-opacity="1"/></g><g><path d="M7.179999904632568,85.5299966430664C3.9699999046325685,85.5299966430664,1.3499999046325684,82.9099966430664,1.3499999046325684,79.69999664306641L1.3499999046325684,40.599996643066405C1.3499999046325684,37.389996643066404,3.9699999046325685,34.769996643066406,7.179999904632568,34.769996643066406C10.389999904632568,34.769996643066406,13.009999904632569,37.389996643066404,13.009999904632569,40.599996643066405L13.009999904632569,79.69999664306641C12.999999904632569,82.9099966430664,10.379999904632568,85.5299966430664,7.179999904632568,85.5299966430664Z" fill="#FFFFFF" fill-opacity="1"/></g><g><path d="M101.91999633789062,84.7799966430664C98.70999633789063,84.7799966430664,96.08999633789062,82.1599966430664,96.08999633789062,78.94999664306641L96.08999633789062,39.849996643066405C96.08999633789062,36.639996643066404,98.70999633789063,34.019996643066406,101.91999633789062,34.019996643066406C105.12999633789062,34.019996643066406,107.74999633789062,36.639996643066404,107.74999633789062,39.849996643066405L107.74999633789062,78.94999664306641C107.74999633789062,82.1599966430664,105.12999633789062,84.7799966430664,101.91999633789062,84.7799966430664Z" fill="#FFFFFF" fill-opacity="1"/></g><g><path d="M32.74000175476074,40.23000137329102C29.530001754760743,40.23000137329102,26.910001754760742,37.61000137329101,26.910001754760742,34.40000137329102L26.910001754760742,29.140001373291014C26.910001754760742,25.930001373291017,29.530001754760743,23.310001373291016,32.74000175476074,23.310001373291016C35.95000175476074,23.310001373291016,38.57000175476074,25.930001373291017,38.57000175476074,29.140001373291014L38.57000175476074,34.40000137329102C38.57000175476074,37.61000137329101,35.95000175476074,40.23000137329102,32.74000175476074,40.23000137329102Z" fill="#FFFFFF" fill-opacity="1"/></g><g><path d="M101.16999633789062,29.139999313354494C97.95999633789063,29.139999313354494,95.33999633789062,26.519999313354493,95.33999633789062,23.309999313354492L95.33999633789062,18.04999931335449C95.33999633789062,14.839999313354493,97.95999633789063,12.219999313354492,101.16999633789062,12.219999313354492C104.37999633789062,12.219999313354492,106.99999633789062,14.839999313354493,106.99999633789062,18.04999931335449L106.99999633789062,23.309999313354492C106.99999633789062,26.519999313354493,104.37000633789063,29.139999313354494,101.16999633789062,29.139999313354494Z" fill="#FFFFFF" fill-opacity="1"/></g><g><path d="M79.63999755859375,85.52999298095703C76.42999755859375,85.52999298095703,73.80999755859375,82.90999298095703,73.80999755859375,79.69999298095703L73.80999755859375,74.43999298095703C73.80999755859375,71.22999298095704,76.42999755859375,68.60999298095703,79.63999755859375,68.60999298095703C82.84999755859374,68.60999298095703,85.46999755859375,71.22999298095704,85.46999755859375,74.43999298095703L85.46999755859375,79.69999298095703C85.46999755859375,82.90999298095703,82.84999755859374,85.52999298095703,79.63999755859375,85.52999298095703Z" fill="#FFFFFF" fill-opacity="1"/></g><g><path d="M125.9800015258789,84.7800030517578C122.77000152587891,84.7800030517578,120.1500015258789,82.16000305175781,120.1500015258789,78.95000305175782L120.1500015258789,51.13000305175781C120.1500015258789,47.92000305175781,122.77000152587891,45.30000305175781,125.9800015258789,45.30000305175781C129.1900015258789,45.30000305175781,131.8100015258789,47.92000305175781,131.8100015258789,51.13000305175781L131.8100015258789,78.95000305175782C131.8100015258789,82.16000305175781,129.1900015258789,84.7800030517578,125.9800015258789,84.7800030517578Z" fill="#FFFFFF" fill-opacity="1"/></g><g><path d="M194.7799969482422,84.7799966430664C191.5699969482422,84.7799966430664,188.9499969482422,82.1599966430664,188.9499969482422,78.94999664306641L188.9499969482422,39.849996643066405C188.9499969482422,36.639996643066404,191.5699969482422,34.019996643066406,194.7799969482422,34.019996643066406C197.98999694824218,34.019996643066406,200.60999694824218,36.639996643066404,200.60999694824218,39.849996643066405L200.60999694824218,78.94999664306641C200.60999694824218,82.1599966430664,197.98999694824218,84.7799966430664,194.7799969482422,84.7799966430664Z" fill="#FFFFFF" fill-opacity="1"/></g><g><path d="M150.2299938964844,84.7799966430664C147.01999389648438,84.7799966430664,144.39999389648438,82.1599966430664,144.39999389648438,78.94999664306641L144.39999389648438,39.849996643066405C144.39999389648438,36.639996643066404,147.01999389648438,34.019996643066406,150.2299938964844,34.019996643066406C153.43999389648437,34.019996643066406,156.05999389648437,36.639996643066404,156.05999389648437,39.849996643066405L156.05999389648437,78.94999664306641C156.05999389648437,82.1599966430664,153.43999389648437,84.7799966430664,150.2299938964844,84.7799966430664Z" fill="#FFFFFF" fill-opacity="1"/></g><g><path d="M125.60999877929687,40.23000137329102C122.39999877929688,40.23000137329102,119.77999877929688,37.61000137329101,119.77999877929688,34.40000137329102L119.77999877929688,29.140001373291014C119.77999877929688,25.930001373291017,122.39999877929688,23.310001373291016,125.60999877929687,23.310001373291016C128.82000877929687,23.310001373291016,131.43999877929687,25.930001373291017,131.43999877929687,29.140001373291014L131.43999877929687,34.40000137329102C131.42999877929688,37.61000137329101,128.80999877929688,40.23000137329102,125.60999877929687,40.23000137329102Z" fill="#FFFFFF" fill-opacity="1"/></g><g><path d="M194.0299969482422,29.139999313354494C190.8199969482422,29.139999313354494,188.1999969482422,26.519999313354493,188.1999969482422,23.309999313354492L188.1999969482422,18.04999931335449C188.1999969482422,14.839999313354493,190.8199969482422,12.219999313354492,194.0299969482422,12.219999313354492C197.23999694824218,12.219999313354492,199.85999694824218,14.839999313354493,199.85999694824218,18.04999931335449L199.85999694824218,23.309999313354492C199.85999694824218,26.519999313354493,197.23999694824218,29.139999313354494,194.0299969482422,29.139999313354494Z" fill="#FFFFFF" fill-opacity="1"/></g><g><path d="M172.50999267578126,63.34999267578125C169.29999267578125,63.34999267578125,166.67999267578125,60.72999267578125,166.67999267578125,57.51999267578125L166.67999267578125,52.25999267578125C166.67999267578125,49.04999267578125,169.29999267578125,46.42999267578125,172.50999267578126,46.42999267578125C175.71999267578124,46.42999267578125,178.33999267578125,49.04999267578125,178.33999267578125,52.25999267578125L178.33999267578125,57.51999267578125C178.33999267578125,60.72999267578125,175.71000267578125,63.34999267578125,172.50999267578126,63.34999267578125Z" fill="#FFFFFF" fill-opacity="1"/></g><g><path d="M172.50999267578126,42.48000137329102C169.29999267578125,42.48000137329102,166.67999267578125,39.86000137329101,166.67999267578125,36.65000137329102L166.67999267578125,31.390001373291014C166.67999267578125,28.180001373291017,169.29999267578125,25.560001373291016,172.50999267578126,25.560001373291016C175.71999267578124,25.560001373291016,178.33999267578125,28.180001373291017,178.33999267578125,31.390001373291014L178.33999267578125,36.65000137329102C178.33999267578125,39.86000137329101,175.71000267578125,42.48000137329102,172.50999267578126,42.48000137329102Z" fill="#FFFFFF" fill-opacity="1"/></g><g><path d="M172.50999267578126,85.34999267578125C169.29999267578125,85.34999267578125,166.67999267578125,82.72999267578125,166.67999267578125,79.51999267578125L166.67999267578125,74.25999267578125C166.67999267578125,71.04999267578125,169.29999267578125,68.42999267578125,172.50999267578126,68.42999267578125C175.72000267578125,68.42999267578125,178.33999267578125,71.04999267578125,178.33999267578125,74.25999267578125L178.33999267578125,79.51999267578125C178.33999267578125,82.71999267578124,175.71000267578125,85.34999267578125,172.50999267578126,85.34999267578125Z" fill="#FFFFFF" fill-opacity="1"/></g><g><g><path d="M0,125.73000793457031C0,121.68999793457031,1.76,118.32000793457031,5.29,115.63000793457032C8.53,113.17000793457031,12.24,111.93000793457031,16.42,111.93000793457031C18.2,111.93000793457031,19.9,112.17000593457031,21.51,112.66001093457031C23.12,113.15001793457031,24.76,113.89001793457031,26.39,114.90000793457031L26.39,121.39000793457032C24.44,119.81000793457031,22.88,118.70000793457031,21.7,118.04000793457031C19.81,116.98000793457031,17.97,116.45000793457031,16.2,116.45000793457031C13.53,116.45000793457031,11.16,117.36001793457031,9.08,119.18001793457032C7,121.00001793457031,5.96,123.23000793457031,5.96,125.86000793457032C5.96,128.67000793457032,7.03,130.9600079345703,9.18,132.74000793457031C11.21,134.4300079345703,13.67,135.2800079345703,16.53,135.2800079345703C18.48,135.2800079345703,20.63,134.52000793457032,22.98,133.0000079345703C23.55,132.6300079345703,24.69,131.8100079345703,26.38,130.55000793457032L26.38,136.8700079345703C24.86,137.7600079345703,23.24,138.4700079345703,21.52,139.0000079345703C19.8,139.5300079345703,18.09,139.80000793457032,16.4,139.80000793457032C12.07,139.80000793457032,8.33,138.5700079345703,5.18,136.10000793457033C1.73,133.4000079345703,0,129.95000793457032,0,125.73000793457031Z" fill="#FFFFFF" fill-opacity="1"/></g><g><path d="M29.65999984741211,112.36000061035156L35.58999984741211,112.36000061035156L35.58999984741211,134.85000061035157L43.53999984741211,134.85000061035157L43.53999984741211,139.37000061035155L29.65999984741211,139.37000061035155L29.65999984741211,112.36000061035156Z" fill="#FFFFFF" fill-opacity="1"/></g><g><path d="M61.3900015258789,132.3900033569336L50.9500015258789,132.3900033569336L47.47000152587891,139.3600033569336L41.150001525878906,139.3600033569336L56.410001525878904,109.9800033569336L71.24000152587891,139.3600033569336L64.88000152587891,139.3600033569336L61.3900015258789,132.3900033569336ZM53.22000152587891,128.0100033569336L59.24000152587891,128.0100033569336L56.270001525878904,121.95000335693359L53.22000152587891,128.0100033569336Z" fill="#FFFFFF" fill-opacity="1"/></g><g><path d="M70.29000091552734,131.70999694824218L76.09000091552734,130.3799969482422C76.46001091552735,131.8699969482422,76.95000091552734,132.9999969482422,77.55000091552735,133.77999694824217C78.35001091552735,134.77999694824217,79.43000091552734,135.27999694824217,80.77000091552735,135.27999694824217C82.03000091552734,135.27999694824217,83.11000091552734,134.89999694824218,83.99000091552735,134.13999694824219C84.88000091552735,133.3799969482422,85.32000091552734,132.3799969482422,85.32000091552734,131.14999694824218C85.32000091552734,129.79999694824218,84.17000091552734,128.57999694824218,81.88000091552735,127.49999694824218C79.73000091552734,126.52999694824219,77.58000091552735,125.54999694824218,75.43001091552735,124.57999694824218C73.08001091552734,123.17999694824219,71.90001091552735,121.42999694824219,71.90001091552735,119.33999694824219C71.90001091552735,116.92999694824219,72.96001091552735,115.04999694824218,75.08001091552734,113.70999694824219C76.91001091552734,112.52999894824218,79.11001091552734,111.94999694824219,81.66000091552735,111.94999694824219C83.55000091552735,111.94999694824219,85.23000091552734,112.39999394824218,86.69000091552735,113.27999694824219C88.15000091552734,114.16999694824219,89.43000091552734,115.42999694824219,90.52000091552735,117.05999694824219L85.83000091552734,119.71999694824218C85.03000091552734,118.57999694824218,84.44000091552735,117.82999694824218,84.07000091552734,117.48000694824219C83.32000091552734,116.78999694824219,82.46000091552735,116.45000694824219,81.49000091552735,116.45000694824219C80.52000091552735,116.45000694824219,79.67000091552734,116.69000694824219,78.95000091552734,117.16000694824218C78.23000091552734,117.63000694824218,77.87000091552734,118.32999694824218,77.87000091552734,119.24999694824218C77.87000091552734,120.48000694824219,79.02000091552735,121.60999694824218,81.31000091552734,122.64999694824219C85.41000091552735,124.50999694824219,87.56000091552734,125.49999694824218,87.76000091552734,125.61999694824219C90.08000091552734,127.07999694824218,91.24000091552735,128.9199969482422,91.24000091552735,131.1199969482422C91.24000091552735,133.77999694824217,90.14000091552734,135.92999694824218,87.93000091552734,137.5699969482422C85.92000091552734,139.0599969482422,83.54000091552734,139.8099969482422,80.79000091552734,139.8099969482422C75.12000091552734,139.7899969482422,71.61000091552734,137.0999969482422,70.29000091552734,131.70999694824218Z" fill="#FFFFFF" fill-opacity="1"/></g><g><path d="M92.7300033569336,131.70999694824218L98.53000335693359,130.3799969482422C98.9000133569336,131.8699969482422,99.39000335693359,132.9999969482422,99.9900033569336,133.77999694824217C100.7900133569336,134.77999694824217,101.8700033569336,135.27999694824217,103.2100033569336,135.27999694824217C104.47000335693359,135.27999694824217,105.55000335693359,134.89999694824218,106.4300033569336,134.13999694824219C107.3200033569336,133.3799969482422,107.7600033569336,132.3799969482422,107.7600033569336,131.14999694824218C107.7600033569336,129.79999694824218,106.61000335693359,128.57999694824218,104.3200033569336,127.49999694824218C102.17000335693359,126.52999694824219,100.0200033569336,125.54999694824218,97.8700133569336,124.57999694824218C95.52001335693359,123.17999694824219,94.3400133569336,121.42999694824219,94.3400133569336,119.33999694824219C94.3400133569336,116.92999694824219,95.4000133569336,115.04999694824218,97.52001335693359,113.70999694824219C99.35001335693359,112.52999894824218,101.55001335693359,111.94999694824219,104.1000033569336,111.94999694824219C105.9900033569336,111.94999694824219,107.67000335693359,112.39999394824218,109.1300033569336,113.27999694824219C110.5900033569336,114.16999694824219,111.8700033569336,115.42999694824219,112.9600033569336,117.05999694824219L108.27000335693359,119.71999694824218C107.47000335693359,118.57999694824218,106.8800033569336,117.82999694824218,106.5100033569336,117.48000694824219C105.7600033569336,116.78999694824219,104.9000033569336,116.45000694824219,103.9300033569336,116.45000694824219C102.9600033569336,116.45000694824219,102.11000335693359,116.69000694824219,101.39000335693359,117.16000694824218C100.67000335693359,117.63000694824218,100.31000335693359,118.32999694824218,100.31000335693359,119.24999694824218C100.31000335693359,120.48000694824219,101.4600033569336,121.60999694824218,103.75000335693359,122.64999694824219C107.8500033569336,124.50999694824219,110.00000335693359,125.49999694824218,110.20000335693359,125.61999694824219C112.52000335693359,127.07999694824218,113.6800033569336,128.9199969482422,113.6800033569336,131.1199969482422C113.6800033569336,133.77999694824217,112.58000335693359,135.92999694824218,110.3700033569336,137.5699969482422C108.36000335693359,139.0599969482422,105.9800033569336,139.8099969482422,103.2300033569336,139.8099969482422C97.56000335693359,139.7899969482422,94.05000335693359,137.0999969482422,92.7300033569336,131.70999694824218Z" fill="#FFFFFF" fill-opacity="1"/></g><g><path d="M126.73999237060546,139.36000610351562L120.75999237060547,139.36000610351562L120.75999237060547,116.87000610351562L113.74999237060547,116.87000610351562L113.74999237060547,112.35000610351562L133.77999237060547,112.35000610351562L133.77999237060547,116.87000610351562L126.72999237060547,116.87000610351562L126.72999237060547,139.36000610351562L126.73999237060546,139.36000610351562Z" fill="#FFFFFF" fill-opacity="1"/></g><g><path d="M151.6300048828125,132.3900033569336L141.1800048828125,132.3900033569336L137.7000148828125,139.3600033569336L131.3800048828125,139.3600033569336L146.6400048828125,109.9800033569336L161.4700048828125,139.3600033569336L155.1100048828125,139.3600033569336L151.6300048828125,132.3900033569336ZM143.4600048828125,128.0100033569336L149.4800048828125,128.0100033569336L146.5100048828125,121.95000335693359L143.4600048828125,128.0100033569336Z" fill="#FFFFFF" fill-opacity="1"/></g><g><path d="M162.33999637226563,112.36000061035156L168.26998657226562,112.36000061035156L168.26998657226562,134.85000061035157L176.2199865722656,134.85000061035157L176.2199865722656,139.37000061035155L162.32998657226562,139.37000061035155L162.32998657226562,112.36000061035156L162.33999637226563,112.36000061035156Z" fill="#FFFFFF" fill-opacity="1"/></g><g><path d="M183.78999061035157,139.36000061035156L177.86000061035156,139.36000061035156L177.86000061035156,112.36000061035156L183.78999061035157,112.36000061035156L183.76999061035156,121.33000061035156L194.10000061035157,112.36000061035156L201.93000061035156,112.36000061035156L187.23000061035157,125.04000061035157L202.23000061035157,139.36000061035156L194.40000061035155,139.36000061035156L183.78000061035155,129.04000061035157L183.78000061035155,139.36000061035156L183.78999061035157,139.36000061035156Z" fill="#FFFFFF" fill-opacity="1"/></g></g></g></svg>