<svg xmlns="http://www.w3.org/2000/svg" xmlns:xlink="http://www.w3.org/1999/xlink" fill="none" version="1.1" width="343" height="312" viewBox="0 0 343 312"><defs><linearGradient x1="0.5" y1="0" x2="0.5" y2="1" id="master_svg0_110_2815"><stop offset="0%" stop-color="#83AEFF" stop-opacity="0.5899999737739563"/><stop offset="100%" stop-color="#506DA3" stop-opacity="0"/></linearGradient><linearGradient x1="0.5" y1="0" x2="0.5" y2="1" id="master_svg1_45_2140"><stop offset="0%" stop-color="#6B93DE" stop-opacity="1"/><stop offset="100%" stop-color="#63B4FF" stop-opacity="0.20000000298023224"/></linearGradient></defs><g style="mix-blend-mode:passthrough"><g><path d="M343,249.906C343,332.698,0,332.698,0,249.906C0,167.11360000000002,76.7536,100,171.47,100C266.186,100,343,167.11360000000002,343,249.906Z" fill="url(#master_svg0_110_2815)" fill-opacity="0.6000000238418579"/></g><g style="mix-blend-mode:passthrough"><g><rect x="122" y="33" width="99" height="115" rx="4.300000190734863" fill="url(#master_svg1_45_2140)" fill-opacity="1"/></g><g><rect x="131" y="43" width="80" height="98" rx="4.300000190734863" fill="#FFFFFF" fill-opacity="0.5"/></g><g><rect x="148" y="30" width="47" height="18" rx="1.3700000047683716" fill="#8FC9FF" fill-opacity="0.8999999761581421"/></g><g><ellipse cx="171.5" cy="31.5" rx="10.5" ry="5.5" fill="#8FC9FF" fill-opacity="0.8999999761581421"/></g></g><g><path d="M164,64L177,64L174.6854,94L166.75841,94L164,64Z" fill="#43A4FF" fill-opacity="0.6000000238418579"/></g><g><ellipse cx="171" cy="105.5" rx="6" ry="5.5" fill="#43A4FF" fill-opacity="0.6000000238418579"/></g><g><path d="M211.55421,0L218,2.59259L210.95446,22L207,20.6869L211.55421,0Z" fill="#43A4FF" fill-opacity="1"/></g><g><path d="M234.5464,12L239,17L222.53823,30L220,27L234.5464,12Z" fill="#43A4FF" fill-opacity="1"/></g><g><path d="M230,41.69491L248.11599999999999,34L250,40.4339L231.25602,46L230,41.69491Z" fill="#43A4FF" fill-opacity="1"/></g><g><ellipse cx="207" cy="110" rx="20" ry="20" fill="#FFFFFF" fill-opacity="0.30000001192092896"/></g><g><path d="M207,133Q207.56459999999998,133,208.1286,132.9723Q208.6925,132.9446,209.2544,132.88920000000002Q209.8163,132.8339,210.3748,132.7511Q210.9333,132.6682,211.4871,132.5581Q212.0408,132.4479,212.5885,132.3107Q213.1362,132.1735,213.6765,132.0096Q214.2169,131.8457,214.7485,131.65550000000002Q215.2801,131.4653,215.8017,131.2492Q216.3234,131.0332,216.8338,130.7918Q217.3442,130.5503,217.84210000000002,130.2842Q218.3401,130.018,218.8244,129.7278Q219.3086,129.4375,219.7781,129.12380000000002Q220.2476,128.8101,220.7011,128.47379999999998Q221.15460000000002,128.1374,221.591,127.7792Q222.0275,127.42099999999999,222.4459,127.0419Q222.86419999999998,126.6627,223.2635,126.2635Q223.6627,125.8642,224.0419,125.4459Q224.421,125.0275,224.7792,124.59100000000001Q225.1374,124.1546,225.47379999999998,123.7011Q225.8101,123.2476,226.12380000000002,122.7781Q226.4375,122.3086,226.7278,121.8244Q227.018,121.3401,227.2842,120.8421Q227.5503,120.3442,227.7918,119.8338Q228.0332,119.32339999999999,228.2492,118.8017Q228.4653,118.2801,228.65550000000002,117.7485Q228.8457,117.2169,229.0096,116.6765Q229.1735,116.1362,229.3107,115.5885Q229.4479,115.0408,229.5581,114.4871Q229.6682,113.9333,229.7511,113.3748Q229.8339,112.8163,229.88920000000002,112.2544Q229.9446,111.6925,229.9723,111.1286Q230,110.5646,230,110Q230,109.4354,229.9723,108.8714Q229.9446,108.3075,229.88920000000002,107.7456Q229.8339,107.1837,229.7511,106.6252Q229.6682,106.0667,229.5581,105.5129Q229.4479,104.9592,229.3107,104.4115Q229.1735,103.8638,229.0096,103.3235Q228.8457,102.7831,228.65550000000002,102.2515Q228.4653,101.7199,228.2492,101.1983Q228.0332,100.67660000000001,227.7918,100.1662Q227.5503,99.6558,227.2842,99.1579Q227.018,98.6599,226.7278,98.1756Q226.4375,97.6913,226.12380000000002,97.2219Q225.8101,96.75242,225.47379999999998,96.29892Q225.1374,95.84541,224.7792,95.40895Q224.421,94.9725,224.0419,94.55414Q223.6627,94.13579,223.2635,93.73654Q222.86419999999998,93.3373,222.4459,92.95812Q222.0275,92.57895,221.591,92.22076Q221.15460000000002,91.86257,220.7011,91.52623Q220.2476,91.18988,219.7781,90.8762Q219.3086,90.56251,218.8244,90.27224Q218.3401,89.98197,217.84210000000002,89.71581Q217.3442,89.44965,216.8338,89.20825Q216.3234,88.96684,215.8017,88.75077Q215.2801,88.5347,214.7485,88.34449Q214.2169,88.15427,213.6765,87.990372Q213.1362,87.826472,212.5885,87.689281Q212.0408,87.55209,211.4871,87.441938Q210.9333,87.331787,210.3748,87.24894Q209.8163,87.166094,209.2544,87.110751Q208.6925,87.055409,208.1286,87.0277045Q207.56459999999998,87,207,87Q206.43540000000002,87,205.8714,87.0277045Q205.3075,87.055409,204.7456,87.110751Q204.1837,87.166094,203.6252,87.24894Q203.0667,87.331787,202.5129,87.441938Q201.9592,87.55209,201.4115,87.689281Q200.8638,87.826472,200.3235,87.990372Q199.7831,88.15427,199.2515,88.34449Q198.7199,88.5347,198.1983,88.75077Q197.6766,88.96684,197.1662,89.20825Q196.6558,89.44965,196.1579,89.71581Q195.6599,89.98197,195.1756,90.27224Q194.6913,90.56251,194.2219,90.8762Q193.75242,91.18988,193.29892,91.52623Q192.84541,91.86257,192.40895,92.22076Q191.9725,92.57895,191.55414,92.95812Q191.13579,93.3373,190.73654,93.73654Q190.3373,94.13579,189.95812,94.55414Q189.57895,94.9725,189.22076,95.40895Q188.86257,95.84541,188.52623,96.29892Q188.18988,96.75242,187.8762,97.2219Q187.56251,97.6913,187.27224,98.1756Q186.98197,98.6599,186.71581,99.1579Q186.44965,99.6558,186.20825,100.1662Q185.96684,100.67660000000001,185.75077,101.1983Q185.5347,101.7199,185.34449,102.2515Q185.15427,102.7831,184.990372,103.3235Q184.826472,103.8638,184.689281,104.4115Q184.55209,104.9592,184.441938,105.5129Q184.331787,106.0667,184.24894,106.6252Q184.166094,107.1837,184.110751,107.7456Q184.055409,108.3075,184.0277045,108.8714Q184,109.4354,184,110Q184,110.5646,184.0277045,111.1286Q184.055409,111.6925,184.110751,112.2544Q184.166094,112.8163,184.24894,113.3748Q184.331787,113.9333,184.441938,114.4871Q184.55209,115.0408,184.689281,115.5885Q184.826472,116.1362,184.990372,116.6765Q185.15427,117.2169,185.34449,117.7485Q185.5347,118.2801,185.75077,118.8017Q185.96684,119.32339999999999,186.20825,119.8338Q186.44965,120.3442,186.71581,120.8421Q186.98197,121.3401,187.27224,121.8244Q187.56251,122.3086,187.8762,122.7781Q188.18988,123.2476,188.52623,123.7011Q188.86257,124.1546,189.22076,124.59100000000001Q189.57895,125.0275,189.95812,125.4459Q190.3373,125.8642,190.73654,126.2635Q191.13579,126.6627,191.55414,127.0419Q191.9725,127.42099999999999,192.40895,127.7792Q192.84541,128.1374,193.29892,128.47379999999998Q193.75242,128.8101,194.2219,129.12380000000002Q194.6913,129.4375,195.1756,129.7278Q195.6599,130.018,196.1579,130.2842Q196.6558,130.5503,197.1662,130.7918Q197.6766,131.0332,198.1983,131.2492Q198.7199,131.4653,199.2515,131.65550000000002Q199.7831,131.8457,200.3235,132.0096Q200.8638,132.1735,201.4115,132.3107Q201.9592,132.4479,202.5129,132.5581Q203.0667,132.6682,203.6252,132.7511Q204.1837,132.8339,204.7456,132.88920000000002Q205.3075,132.9446,205.8714,132.9723Q206.43540000000002,133,207,133ZM207,129Q207.4664,129,207.9323,128.9771Q208.3981,128.95420000000001,208.8623,128.9085Q209.3265,128.8628,209.7879,128.7944Q210.2493,128.7259,210.7067,128.63490000000002Q211.1642,128.5439,211.6166,128.4306Q212.0691,128.3173,212.5154,128.18189999999998Q212.9617,128.0465,213.4009,127.88929999999999Q213.8401,127.7322,214.27100000000002,127.55369999999999Q214.7019,127.3752,215.1235,127.17580000000001Q215.5452,126.9764,215.9565,126.7565Q216.3679,126.53659999999999,216.7679,126.29679999999999Q217.168,126.057,217.5558,125.7979Q217.9437,125.53880000000001,218.3183,125.26089999999999Q218.6929,124.98310000000001,219.05349999999999,124.68719999999999Q219.414,124.3913,219.7596,124.0781Q220.1052,123.76480000000001,220.435,123.435Q220.7648,123.1052,221.0781,122.7596Q221.3913,122.414,221.6872,122.0535Q221.9831,121.69290000000001,222.2609,121.3183Q222.5388,120.9437,222.7979,120.5558Q223.05700000000002,120.168,223.2968,119.768Q223.5366,119.36789999999999,223.75650000000002,118.9565Q223.9764,118.5452,224.1758,118.1235Q224.3752,117.7019,224.5537,117.271Q224.7322,116.8401,224.8893,116.40090000000001Q225.0465,115.96170000000001,225.18189999999998,115.5154Q225.3173,115.06909999999999,225.4306,114.6166Q225.5439,114.1642,225.63490000000002,113.7067Q225.7259,113.2493,225.7944,112.78790000000001Q225.8628,112.3265,225.9085,111.8623Q225.95420000000001,111.3981,225.9771,110.9323Q226,110.4664,226,110Q226,109.5336,225.9771,109.0677Q225.95420000000001,108.6019,225.9085,108.1377Q225.8628,107.6735,225.7944,107.21209999999999Q225.7259,106.7507,225.63490000000002,106.2933Q225.5439,105.8358,225.4306,105.3834Q225.3173,104.93090000000001,225.18189999999998,104.4846Q225.0465,104.0382,224.8893,103.59909999999999Q224.7322,103.1599,224.5537,102.729Q224.3752,102.2981,224.1758,101.8765Q223.9764,101.4548,223.75650000000002,101.0435Q223.5366,100.6321,223.2968,100.232Q223.05700000000002,99.832,222.7979,99.4442Q222.5388,99.0563,222.2609,98.6817Q221.9831,98.3071,221.6872,97.9465Q221.3913,97.586,221.0781,97.2404Q220.7648,96.89478,220.435,96.56497Q220.1052,96.23516000000001,219.7596,95.92193Q219.414,95.6087,219.05349999999999,95.3128Q218.6929,95.01689999999999,218.3183,94.73906Q217.9437,94.46121,217.5558,94.20208Q217.168,93.94295,216.768,93.70316Q216.3679,93.46337,215.9565,93.2435Q215.5452,93.02363,215.1235,92.8242Q214.7019,92.62478,214.27100000000002,92.44629Q213.8401,92.2678,213.4009,92.11066Q212.9617,91.95353,212.5154,91.81813Q212.0691,91.68274,211.6166,91.56941Q211.1642,91.45607,210.7067,91.36508Q210.2493,91.27408,209.7879,91.20565Q209.3265,91.13721,208.8623,91.09149Q208.3981,91.04577,207.9323,91.02289Q207.4664,91,207,91Q206.5336,91,206.0677,91.02289Q205.6019,91.04577,205.1377,91.09149Q204.6735,91.13721,204.2121,91.20565Q203.7507,91.27409,203.2933,91.36508Q202.8358,91.45607,202.3834,91.56941Q201.9309,91.68274,201.4846,91.81813Q201.0382,91.95353,200.5991,92.11066Q200.1599,92.2678,199.72899999999998,92.44629Q199.2981,92.62478,198.8765,92.8242Q198.4548,93.02363,198.0435,93.2435Q197.6321,93.46337,197.232,93.70316Q196.832,93.94295,196.4442,94.20208Q196.0563,94.46121,195.6817,94.73906Q195.3071,95.01689999999999,194.94650000000001,95.3128Q194.586,95.6087,194.2404,95.92193Q193.89478,96.23516000000001,193.56497,96.56497Q193.23516,96.89478,192.92193,97.2404Q192.6087,97.586,192.3128,97.9465Q192.0169,98.3071,191.73906,98.6817Q191.46121,99.0563,191.20208,99.4442Q190.94295,99.832,190.70316,100.232Q190.46337,100.6321,190.24349,101.0435Q190.02362,101.4548,189.8242,101.8764Q189.62478,102.2981,189.44629,102.729Q189.2678,103.1599,189.11066,103.59909999999999Q188.95353,104.0382,188.81813,104.4846Q188.68274,104.93090000000001,188.56941,105.3834Q188.45607,105.8358,188.36508,106.2933Q188.27408,106.7507,188.20565,107.21209999999999Q188.13721,107.6735,188.09149,108.1377Q188.04577,108.6019,188.02289,109.0677Q188,109.5336,188,110Q188,110.4664,188.02289,110.9323Q188.04577,111.3981,188.09149,111.8623Q188.13721,112.3265,188.20565,112.78790000000001Q188.27408,113.2493,188.36508,113.7067Q188.45607,114.1642,188.56941,114.6166Q188.68274,115.06909999999999,188.81813,115.5154Q188.95353,115.96170000000001,189.11066,116.40090000000001Q189.2678,116.8401,189.44629,117.271Q189.62478,117.7019,189.8242,118.1235Q190.02362,118.5452,190.24349,118.9565Q190.46337,119.36789999999999,190.70316,119.7679Q190.94295,120.168,191.20208,120.5558Q191.46121,120.9437,191.73906,121.3183Q192.0169,121.69290000000001,192.3128,122.0535Q192.6087,122.414,192.92193,122.7596Q193.23516,123.1052,193.56497,123.435Q193.89478,123.76480000000001,194.2404,124.0781Q194.586,124.3913,194.94650000000001,124.68719999999999Q195.3071,124.98310000000001,195.6817,125.26089999999999Q196.0563,125.53880000000001,196.4442,125.7979Q196.832,126.057,197.232,126.29679999999999Q197.6321,126.53659999999999,198.0435,126.7565Q198.4548,126.9764,198.8764,127.17580000000001Q199.2981,127.3752,199.72899999999998,127.55369999999999Q200.1599,127.7322,200.5991,127.88929999999999Q201.0382,128.0465,201.4846,128.18189999999998Q201.9309,128.3173,202.3834,128.4306Q202.8358,128.5439,203.2933,128.63490000000002Q203.7507,128.7259,204.2121,128.7944Q204.6735,128.8628,205.1377,128.9085Q205.6019,128.95420000000001,206.0677,128.9771Q206.5336,129,207,129Z" fill-rule="evenodd" fill="#6699FF" fill-opacity="1"/></g><g><path d="M221,127.61715L222.65372,129.12122L222.65372,132.24198L244.488,153.4445C245.5272,154.1851,246.93110000000001,154.1851,247.9702,153.4445C249.202,152.4557,250.3282,151.3457,251.3314,150.1316Q252.844,149.2901,250.9348,147.2825L229.82646,126.60343L225.71236,126.60343L223.74943,125L221,127.61715Z" fill="#6699FF" fill-opacity="1"/></g><g style="mix-blend-mode:passthrough"><path d="M114.14062,195.9249C115.4375,196.964,117.1172,198.3781,118.1719,199.464L108.71875,199.464L108.71875,202.4171L121.0078,202.4171C119.375,204.5578,117.3359,207.1359,115.5547,209.2218L118.5547,210.6124C121.125,207.3781,124.1484,203.4406,126.2656,200.4015L123.9844,199.3156L123.4766,199.464L119.2734,199.464L120.7422,197.9093C119.7109,196.8156,117.5234,195.1828,116.0391,194.0734L114.14062,195.9249ZM116.5156,187.19056C114.14062,191.0499,109.82031,194.2453,105.59375,196.1281C106.4375,196.8703,107.35156,198.0343,107.82812,198.8703C111.1875,197.0656,114.5,194.589,117.1641,191.5187C119.7578,194.3156,123.1641,196.964,126.1406,198.6046C126.6484,197.7609,127.6562,196.4953,128.3984,195.8546C125.1094,194.4171,121.2656,191.8156,118.8906,189.31556L119.3984,188.57338L116.5156,187.19056ZM135.6484,199.964L146.3516,199.964L146.3516,205.5656L135.6484,205.5656L135.6484,199.964ZM135.6484,197.1359L135.6484,191.8703L146.3516,191.8703L146.3516,197.1359L135.6484,197.1359ZM132.6953,188.964L132.6953,210.1515L135.6484,210.1515L135.6484,208.464L146.3516,208.464L146.3516,210.0968L149.4453,210.0968L149.4453,188.964L132.6953,188.964ZM166.4609,189.089L166.4609,192.7609C166.4609,194.7453,166.3203,197.3312,164.7109,199.2453C165.3125,199.5109,166.4375,200.2921,166.9141,200.6984C168.1406,199.2218,168.6719,197.1593,168.8828,195.2218L170.9531,195.2218L170.9531,200.5109L173.5625,200.5109L173.5625,195.2218L175.9688,195.2218L175.9688,192.964L169.0078,192.964L169.0078,192.8078L169.0078,191.0109C171.3125,190.8156,173.7578,190.4562,175.6328,189.92494L174.3594,187.69056C172.3438,188.37025,169.1953,188.87025,166.4609,189.089ZM159.5938,206.3859L170.375,206.3859L170.375,207.464L159.5938,207.464L159.5938,206.3859ZM159.5938,204.464L159.5938,203.1281L170.375,203.1281L170.375,204.464L159.5938,204.464ZM156.8594,200.964L156.8594,210.4484L159.5938,210.4484L159.5938,209.6281L170.375,209.6281L170.375,210.4249L173.22660000000002,210.4249L173.22660000000002,200.964L156.8594,200.964ZM154.1719,197.1281L154.3672,199.4093L159.6484,198.8859L159.6484,200.464L162.2578,200.464L162.2578,198.6203L165.2578,198.3156L165.2578,196.2609L162.2578,196.5343L162.2578,195.1984L165.5938,195.1984L165.5938,192.964L162.2578,192.964L162.2578,191.6437L159.6484,191.6437L159.6484,192.964L157.4844,192.964C158.0156,192.4015,158.5625,191.7687,159.0703,191.1046L165.5234,191.1046L165.5234,188.964L160.5781,188.964L161.0391,188.19056L158.1328,187.49525C157.9375,187.99525,157.7031,188.49525,157.4609,188.964L154.1719,188.964L154.1719,191.1046L156.1406,191.1046C155.8281,191.5499,155.5625,191.8859,155.4219,192.0499C154.9375,192.5656,154.5312,192.964,154.125,193.0656C154.4141,193.7609,154.8438,195.0343,154.9844,195.6593C155.2031,195.3859,156.0938,195.1984,157.0547,195.1984L159.6484,195.1984L159.6484,196.714L154.1719,197.1281ZM179.53910000000002,188.964L179.53910000000002,191.7765L187.0781,191.7765C187.0312,193.1671,186.9531,194.5812,186.78910000000002,195.964L178.10160000000002,195.964L178.10160000000002,198.7999L186.2578,198.7999C185.25,202.5656,183,205.9015,177.6953,207.9484C178.4375,208.5499,179.22660000000002,209.6046,179.6328,210.3937C185.4219,207.9796,187.9375,203.9953,189.0703,199.5421L189.0703,205.9249C189.0703,208.8624,189.8594,209.7999,192.9062,209.7999C193.5078,209.7999,195.8594,209.7999,196.4844,209.7999C199.125,209.7999,199.9453,208.6984,200.2812,204.5187C199.46089999999998,204.3234,198.1406,203.7999,197.5156,203.2765C197.375,206.4718,197.22660000000002,206.964,196.2422,206.964C195.6953,206.964,193.77339999999998,206.964,193.3203,206.964C192.28910000000002,206.964,192.1172,206.8468,192.1172,205.8781L192.1172,198.7999L200.03910000000002,198.7999L200.03910000000002,195.964L189.7188,195.964C189.8828,194.5812,189.96089999999998,193.1671,190.0312,191.7765L198.7188,191.7765L198.7188,188.964L179.53910000000002,188.964ZM202.8438,189.44838C204.0703,190.6515,205.625,192.3546,206.352,193.4562L208.414,191.5421C207.648,190.5109,206.01600000000002,188.87806,204.78910000000002,187.75306L202.8438,189.44838ZM201.83589999999998,194.964L201.83589999999998,197.5578L204.6953,197.5578L204.6953,204.8937C204.6953,206.3703,203.8281,207.5499,203.22660000000002,208.1203C203.7344,208.464,204.6172,209.4249,204.9297,209.964C205.344,209.3937,206.10899999999998,208.6828,210.281,204.8937C209.945,204.3781,209.445,203.2687,209.203,202.4796L207.453,204.0578L207.453,194.964L201.83589999999998,194.964ZM210.336,188.464L210.336,198.464L215.352,198.464L215.352,199.8624L209.203,199.8624L209.203,202.4562L214.031,202.4796C212.64100000000002,204.5031,210.547,206.3781,208.438,207.3937C209.039,207.9328,209.898,208.9718,210.312,209.6359C212.18,208.5031,213.961,206.6281,215.352,204.5265L215.352,210.4562L218.18,210.4562L218.18,204.4328C219.477,206.4328,221.13299999999998,208.2843,222.695,209.4406C223.148,208.6984,224.039,207.6906,224.664,207.1671C222.836,206.1281,220.89100000000002,204.3234,219.523,202.464L224.086,202.464L224.086,199.8624L218.18,199.8624L218.18,198.464L223.00799999999998,198.464L223.00799999999998,188.464L210.336,188.464ZM212.922,194.464L215.469,194.464L215.469,196.214L212.922,196.214L212.922,194.464ZM218.086,194.464L220.273,194.464L220.273,196.214L218.086,196.214L218.086,194.464ZM212.922,190.7218L215.469,190.7218L215.469,192.2609L212.922,192.2609L212.922,190.7218ZM218.086,190.7218L220.273,190.7218L220.273,192.2609L218.086,192.2609L218.086,190.7218ZM238.68,190.8937L244.297,190.8937L244.297,194.464L238.68,194.464L238.68,190.8937ZM236.016,188.464L236.016,196.8937L247.078,196.8937L247.078,188.464L236.016,188.464ZM235.82,202.964L235.82,205.3937L240.023,205.3937L240.023,207.4484L234.312,207.4484L234.312,209.964L248.258,209.964L248.258,207.4484L242.898,207.4484L242.898,205.3937L247.148,205.3937L247.148,202.964L242.898,202.964L242.898,200.464L247.727,200.464L247.727,197.9953L235.242,197.9953L235.242,200.464L240.023,200.464L240.023,202.964L235.82,202.964ZM233.156,187.7765C231.312,188.63588,228.35899999999998,189.35463,225.695,189.78431C226.00799999999998,190.3859,226.36700000000002,191.3859,226.50799999999998,192.0812C227.445,191.9562,228.43,191.7765,229.438,191.589L229.438,194.464L225.977,194.464L225.977,197.1359L229.055,197.1359C228.188,199.2453,226.82,202.1828,225.477,203.9015C225.93,204.6203,226.555,205.8156,226.82,206.6046C227.75799999999998,205.4406,228.672,203.7374,229.438,201.6124L229.438,210.4718L232.219,210.4718L232.219,200.6515C232.797,201.7609,233.375,202.9406,233.664,203.5656L235.32,200.8624C234.859,200.2531,232.86700000000002,198.1671,232.219,197.7062L232.219,197.1359L234.789,197.1359L234.789,194.464L232.219,194.464L232.219,190.9015C233.25,190.6437,234.234,190.3234,235.102,189.964L233.156,187.7765Z" fill="#FFFFFF" fill-opacity="1"/></g></g></svg>