<svg xmlns="http://www.w3.org/2000/svg" xmlns:xlink="http://www.w3.org/1999/xlink" fill="none" version="1.1" width="67" height="153" viewBox="0 0 67 153"><g style="mix-blend-mode:passthrough"><g style="opacity:0.7539483904838562;mix-blend-mode:passthrough"><rect x="0" y="0" width="67" height="153" rx="10" fill="#FFFFFF" fill-opacity="0.1599999964237213"/><rect x="0" y="0" width="67" height="153" rx="10" fill-opacity="0" stroke-opacity="0.7539483904838562" stroke="#1B387B" fill="none" stroke-width="0"/></g><g style="mix-blend-mode:passthrough"><path d="M37.6031,76.4992L25.533534,88.0292C24.822155,88.71000000000001,24.822155,89.8117,25.533534,90.4903C26.24488,91.1699,27.399,91.1699,28.11034,90.4903L41.4673,77.7294C42.1776,77.0498,42.1776,75.9475,41.4673,75.27L28.11034,62.509732C27.75357,62.169887,27.28726,62,26.82087,62C26.35445,62,25.888141,62.169923,25.533534,62.51082C24.822155,63.19047,24.822155,64.29062,25.533534,64.97028L37.6031,76.4992L37.6031,76.4992Z" fill="#C1DBFF" fill-opacity="1"/></g></g></svg>