<svg xmlns="http://www.w3.org/2000/svg" xmlns:xlink="http://www.w3.org/1999/xlink" fill="none" version="1.1" width="21" height="18" viewBox="0 0 21 18"><g><path d="M21,0.692308L21,14.5385C21,14.9214,20.7067,15.2308,20.3438,15.2308L11.3203,15.2308C11.2301,15.2308,11.1563,15.3087,11.1563,15.4038L11.1563,15.9231C11.1563,16.306,11.4495,16.6154,11.8125,16.6154L15.4219,16.6154C15.6023,16.6154,15.7664,16.6933,15.8854,16.8188C16.0043,16.9442,16.0781,17.1173,16.0781,17.3077C16.0781,17.6906,15.7849,18,15.4219,18L5.57813,18C5.39766,18,5.23359,17.9221,5.11465,17.7966C4.9957,17.6712,4.92188,17.4981,4.92188,17.3077C4.92188,16.9248,5.21514,16.6154,5.57813,16.6154L9.1875,16.6154C9.55049,16.6154,9.84375,16.306,9.84375,15.9231L9.84375,15.4038C9.84375,15.3087,9.76992,15.2308,9.67969,15.2308L0.65625,15.2308C0.293262,15.2308,0,14.9214,0,14.5385L0,0.692308C0,0.309375,0.293262,0,0.65625,0L20.3438,0C20.7067,0,21,0.309375,21,0.692308Z" fill="#FFFFFF" fill-opacity="1"/></g></svg>