<?xml version="1.0" standalone="no"?><!DOCTYPE svg PUBLIC "-//W3C//DTD SVG 1.1//EN" "http://www.w3.org/Graphics/SVG/1.1/DTD/svg11.dtd"><svg t="1715762143296" class="icon" viewBox="0 0 1024 1024" version="1.1" xmlns="http://www.w3.org/2000/svg" p-id="10579" width="48" height="48" xmlns:xlink="http://www.w3.org/1999/xlink"><path d="M512 981.333333c-123.733333 0-243.2-51.2-332.8-136.533333C93.866667 755.2 42.666667 635.733333 42.666667 512c0-123.733333 51.2-243.2 136.533333-332.8C268.8 93.866667 388.266667 42.666667 512 42.666667c123.733333 0 243.2 51.2 332.8 136.533333 85.333333 89.6 136.533333 209.066667 136.533333 332.8 0 123.733333-51.2 243.2-136.533333 332.8-89.6 85.333333-209.066667 136.533333-332.8 136.533333zM362.666667 341.333333c-12.8 0-21.333333 8.533333-21.333334 21.333334v298.666666c0 12.8 8.533333 21.333333 21.333334 21.333334h298.666666c12.8 0 21.333333-8.533333 21.333334-21.333334v-298.666666c0-12.8-8.533333-21.333333-21.333334-21.333334h-298.666666z" p-id="10580" fill="#ffffff"></path></svg>